<svg id="Layer_5" enable-background="new 0 0 64 64" height="512" viewBox="0 0 64 64" width="512" xmlns="http://www.w3.org/2000/svg"><path d="m57.953 41.502c1.252-1.101 2.047-2.708 2.047-4.502 0-3.309-2.691-6-6-6s-6 2.691-6 6c0 2.243 1.239 4.2 3.067 5.229-1.983 1.272-3.372 3.418-3.577 5.899l-.403 4.872h-5.087c-1.654 0-3 1.346-3 3s1.346 3 3 3h4v4h17v-14.231c0-3.325-2.103-6.161-5.047-7.267zm-3.953-8.502c2.206 0 4 1.794 4 4s-1.794 4-4 4-4-1.794-4-4 1.794-4 4-4zm7 28h-13v-2h.347c2.604 0 4.744-1.955 4.979-4.547l.669-7.362-1.992-.181-.669 7.362c-.141 1.555-1.425 2.728-2.987 2.728h-6.347c-.551 0-1-.449-1-1s.449-1 1-1h5.087c1.041 0 1.897-.782 1.992-1.827l.404-4.88c.246-2.968 2.77-5.293 5.748-5.293 3.181 0 5.769 2.588 5.769 5.769z"/><path d="m22 53-5.086.008-.404-4.88c-.206-2.481-1.595-4.627-3.577-5.899 1.828-1.029 3.067-2.986 3.067-5.229 0-3.309-2.691-6-6-6s-6 2.691-6 6c0 1.794.795 3.401 2.047 4.502-2.944 1.106-5.047 3.942-5.047 7.267v14.231h17v-4h4c1.654 0 3-1.346 3-3s-1.346-3-3-3zm-12-20c2.206 0 4 1.794 4 4s-1.794 4-4 4-4-1.794-4-4 1.794-4 4-4zm12 24h-6.347c-1.562 0-2.846-1.173-2.987-2.728l-.669-7.362-1.992.181.669 7.362c.235 2.592 2.375 4.547 4.979 4.547h.347v2h-13v-12.231c0-3.181 2.588-5.769 5.769-5.769 2.978 0 5.503 2.325 5.749 5.293l.404 4.888c.094 1.037.95 1.819 1.991 1.819h5.087c.551 0 1 .449 1 1s-.449 1-1 1z"/><path d="m41.089 37.166c.104-.227.2-.455.286-.685l2.625-.718v-5.526l-2.625-.718c-.086-.229-.181-.458-.286-.685l1.35-2.366-1.587-1.587c.088-.28.148-.572.148-.881 0-1.134-.64-2.112-1.571-2.621l2.441-4.882c.546-1.094.899-2.284 1.048-3.497h1.516l3.566 5.944 3.299-5.5c.165-.274.466-.444.785-.444.505 0 .916.411.916.916v7.084h2v-7.084c0-1.608-1.308-2.916-2.916-2.916-1.019 0-1.976.542-2.5 1.416l-1.584 2.64-2.434-4.056h-2.602c-.367-5.574-5.007-10-10.672-10h-.584c-5.665 0-10.305 4.426-10.672 10h-2.602l-2.434 4.056-1.584-2.64c-.524-.874-1.482-1.416-2.5-1.416-1.608 0-2.916 1.308-2.916 2.916v7.084h2v-7.084c0-.505.411-.916.916-.916.32 0 .621.17.785.445l3.299 5.499 3.566-5.944h1.516c.149 1.214.502 2.404 1.048 3.497l2.441 4.882c-.931.509-1.571 1.487-1.571 2.621 0 .309.06.601.148.882l-1.587 1.587 1.35 2.366c-.104.227-.2.455-.286.685l-2.625.717v5.526l2.625.717c.086.23.182.458.286.685l-1.35 2.366 3.908 3.908 2.366-1.35c.227.104.455.2.685.286l.717 2.625h5.526l.717-2.625c.23-.086.458-.182.685-.286l2.366 1.35 3.908-3.908zm-5.089-4.166c0 2.206-1.794 4-4 4s-4-1.794-4-4c0-.393.058-.779.168-1.149 1.102.724 2.418 1.149 3.832 1.149s2.73-.425 3.831-1.149c.111.37.169.756.169 1.149zm-10-10h12c.551 0 1 .449 1 1s-.449 1-1 1h-12c-.551 0-1-.449-1-1s.449-1 1-1zm6 8c-2.414 0-4.434-1.721-4.899-4h9.798c-.465 2.279-2.485 4-4.899 4zm-9-19.292c0-4.802 3.906-8.708 8.708-8.708h.584c4.802 0 8.708 3.906 8.708 8.708 0 1.345-.318 2.691-.919 3.895l-2.699 5.397h-4.382v-5.142c1.72-.447 3-2 3-3.858 0-2.206-1.794-4-4-4s-4 1.794-4 4c0 1.858 1.28 3.411 3 3.858v5.142h-4.382l-2.699-5.397c-.601-1.204-.919-2.55-.919-3.895zm9 2.292c-1.103 0-2-.897-2-2s.897-2 2-2 2 .897 2 2-.897 2-2 2zm6.196 26.946-1.979-1.129-.486.256c-.449.237-.91.43-1.371.572l-.525.162-.598 2.193h-2.474l-.6-2.193-.525-.162c-.46-.142-.922-.334-1.372-.572l-.485-.256-1.978 1.128-1.75-1.749 1.129-1.979-.256-.486c-.237-.449-.43-.91-.572-1.371l-.162-.525-2.192-.598v-2.474l2.193-.6.162-.525c.142-.46.334-.922.572-1.372l.256-.485-1.128-1.978.3-.3c.214.141.452.246.7.329.161 1.354.707 2.591 1.529 3.595-.381.801-.584 1.676-.584 2.573 0 3.309 2.691 6 6 6s6-2.691 6-6c0-.898-.203-1.772-.584-2.572.823-1.004 1.368-2.242 1.53-3.595.248-.083.485-.188.7-.329l.3.3-1.128 1.978.256.485c.237.45.43.911.572 1.372l.162.525 2.193.6v2.474l-2.193.599-.162.525c-.142.46-.334.921-.572 1.371l-.256.486 1.129 1.979z"/><path d="m53 27h2v2h-2z"/><path d="m53 23h2v2h-2z"/><path d="m9 27h2v2h-2z"/><path d="m9 23h2v2h-2z"/></svg>