<svg height="496pt" viewBox="0 0 496 496" width="496pt" xmlns="http://www.w3.org/2000/svg"><path d="m464 248.136719c0-17.769531-11.929688-33.585938-29.015625-38.464844l-26.984375-7.703125v-2.128906c9.96875-7.511719 16-19.328125 16-31.832032v-14.625c0-21.167968-15.855469-39.253906-36.105469-41.191406-11.300781-1.09375-22.496093 2.65625-30.804687 10.214844-8.3125 7.5625-13.089844 18.355469-13.089844 29.59375v16c0 12.503906 6.03125 24.328125 16 31.832031v2.128907l-26.984375 7.710937c-17.085937 4.878906-29.015625 20.695313-29.015625 38.464844v23.863281h160zm-16 7.863281h-128v-7.863281c0-10.664063 7.160156-20.152344 17.40625-23.082031l38.59375-11.023438v-23.070312l-3.976562-2.3125c-7.527344-4.382813-12.023438-12.105469-12.023438-20.648438v-16c0-6.742188 2.863281-13.222656 7.855469-17.761719 5.074219-4.613281 11.65625-6.789062 18.519531-6.125 12.121094 1.160157 21.625 12.253907 21.625 25.261719v14.625c0 8.542969-4.496094 16.265625-12.023438 20.648438l-3.976562 2.3125v23.070312l38.59375 11.023438c10.246094 2.9375 17.40625 12.425781 17.40625 23.082031zm0 0"/><path d="m496 80h-48v-80h-304v16h-46.246094l-5.464844 21.894531c-4.882812 1.632813-9.601562 3.578125-14.113281 5.808594l-19.296875-11.605469-42.773437 42.78125 11.597656 19.304688c-2.230469 4.503906-4.167969 9.222656-5.816406 14.113281l-21.886719 5.445313v60.503906l21.886719 5.449218c1.640625 4.890626 3.578125 9.609376 5.816406 14.113282l-11.597656 19.304687 42.78125 42.78125 19.167969-11.527343c5.410156 3.023437 12.050781 6.671874 17.945312 9.183593v162.449219h-25.457031l-57.855469 21.695312c-7.582031 2.839844-12.6875 10.199219-12.6875 18.304688s5.105469 15.464844 12.679688 18.304688l57.863281 21.695312h257.457031c19.3125 0 35.472656-13.769531 39.191406-32h32.808594v-96h48v-64h48zm-64-64v64h-16v-48h-240v64h-16v-80zm-160 64v16h-80v-48h208v32zm-176 16v103.3125c-19.480469-11.289062-32-32.234375-32-55.3125 0-35.289062 28.710938-64 64-64 5.441406 0 10.800781.679688 16 2.023438v13.976562zm-11.199219 133.816406-7.066406-3.914062-16.382813 9.851562-25.09375-25.105468 9.832032-16.375-2.21875-4.035157c-3.304688-6-6-12.542969-8.007813-19.4375l-1.277343-4.417969-18.585938-4.640624v-35.496094l18.585938-4.628906 1.277343-4.417969c2.007813-6.894531 4.703125-13.4375 8.007813-19.4375l2.21875-4.035157-9.832032-16.375 25.09375-25.105468 16.382813 9.851562 4.035156-2.226562c6.007813-3.3125 12.542969-6 19.4375-8l4.417969-1.285156 4.621094-18.585938h33.753906v33.671875c-5.246094-1.070313-10.585938-1.671875-16-1.671875-44.113281 0-80 35.886719-80 80 0 31.929688 19.070312 60.6875 48 73.320312v18.550782c-3.9375-2-7.984375-4.261719-11.199219-6.054688zm-4.800781 234.183594h176v16h-176zm192-32h16v48h-16zm-16 16h-176v-16h176zm-240 8c0-1.472656.921875-2.800781 2.304688-3.320312l45.695312-17.136719v40.914062l-45.703125-17.136719c-1.375-.519531-2.296875-1.847656-2.296875-3.320312zm312 24h-24v-48h24c13.230469 0 24 10.769531 24 24s-10.769531 24-24 24zm39.191406-32c-3.71875-18.230469-19.871094-32-39.191406-32h-216v-304h160v192h112v144zm64.808594-96h-32v-48h32zm48-64h-192v-192h192zm0 0"/><path d="m128 128h128v16h-128zm0 0"/><path d="m128 160h128v16h-128zm0 0"/><path d="m128 192h128v16h-128zm0 0"/><path d="m128 224h128v16h-128zm0 0"/><path d="m128 256h128v16h-128zm0 0"/><path d="m128 288h128v16h-128zm0 0"/><path d="m128 400h240v-80h-240zm16-64h208v48h-208zm0 0"/><path d="m160 352h16v16h-16zm0 0"/><path d="m192 352h144v16h-144zm0 0"/></svg>